<svg version="1" xmlns="http://www.w3.org/2000/svg" width="853.333" height="853.333" viewBox="0 0 640.000000 640.000000"><path d="M297 32.1c-2.5.3-6.3.9-8.5 1.2-3.4.5-12.9 2.5-19.8 4.2-13.9 3.3-35.3 11.9-49.2 19.8-24.4 13.7-42.8 29-64.1 53.4-7.8 8.8-20.5 28-28.1 42.3-10.3 19.4-20.6 48.9-23.8 68-.3 1.9-1 6-1.5 9-2.1 12.1-2.5 19.5-2.5 42.5 0 27 1.4 38.6 7.1 61.3 10.6 42.2 32.5 81.9 61.2 111.1 1.5 1.5 2 2.7 1.4 3.3-1.6 1.6-15.3 3-23.7 2.5-30.4-2-58.5-17.2-88-47.6-11.4-11.6-17.9-15.4-26.4-15.4-3.1 0-7.3.7-9.3 1.6-5.3 2.2-13.1 9.8-17.8 17.3l-4 6.3.4 9.8c.2 5.4.7 10.9 1 12.2 5.1 21.5 20.4 43 42.8 60.4l7.7 5.9-2.1 2.2c-5.4 5.8-7.4 17-5.5 31.1 3.2 23.5 20.6 43.7 48.9 56.9 26.7 12.5 50.8 17.1 88.8 17.1 36.7 0 49.2-2.4 71.7-13.5 30.6-15.1 51.4-38 59.8-65.5 1.4-4.5 2.5-8.8 2.5-9.6 0-.8 1-1.5 2.1-1.6 1.2-.1 2.7-.7 3.2-1.2.7-.7.2-.9-1.6-.5-2.2.3-2.6.1-2.4-1.3.4-2.9 1.6-4.1 3.5-3.9 1.3.2 1.7 1.2 1.6 3.9-.1 2.1.2 3.4.7 3.1.5-.3.9.4.9 1.4 0 3.1 3.9 15.1 7.2 22.2 2.8 5.9 8.5 15.1 12.7 20.3 8 10.2 30.2 27.7 40.1 31.7 1.9.8 3.7 1.6 4 2 1.3 1.5 21.7 8.8 26.9 9.6 1.8.3 4.3.8 5.5 1 9.6 1.9 53.9 2.6 67.1 1 7.6-.8 25.3-4.3 32.5-6.2 38-10.5 64.7-30.9 73-55.9 5.1-15.4 4.5-33.2-1.5-40.3-1.4-1.7-2.5-3.4-2.5-3.9s2.4-2.7 5.2-4.8c7.9-6 9.6-7.4 16.5-14.3 18.3-18.5 28.8-40.2 29.2-60.7.2-7.5 0-8.4-3.4-14-10.7-17.8-24.5-23.9-38.6-17.1-4 2-9 6.2-17.5 14.8-28.3 28.7-56.2 43.4-86.3 45.5-7.7.5-23.1-1-23.1-2.3 0-.3 1.2-1.7 2.8-3.2 35.7-35.7 60.9-89.2 67.6-143.7 1.8-14.3 1.8-46 .1-60-4-32.8-11.7-58.4-26-86.5-34.2-67.1-96.1-112.5-167-122.4-10.5-1.4-43.5-1.8-51.5-.5z"/><path d="M318.9 512.4c0 .1-.2.8-.4 1.7-.2 1.1.3 1.6 1.3 1.5 1.9-.3 2.5-3.3.6-3.3-.8 0-1.4.1-1.5.1z"/></svg>